<svg viewBox="0 0 1024 1024" fill="none" xmlns="http://www.w3.org/2000/svg">
    <g id="SVGRepo_bgCarrier" stroke-width="0"></g>
    <g id="SVGRepo_tracerCarrier" stroke-linecap="round" stroke-linejoin="round"></g>
    <g id="SVGRepo_iconCarrier">
        <path
            d="M180 761.1c-42.9 0-83-40.5-83-83V231.5c0-42.4 40.1-79 83-79h664c42.8 0 83 36.6 83 79v446.7c0 42.5-40.2 83-83 83H180z m-27.7-525.6v442.7c0 14.1 13.4 27.7 27.7 27.7 0 0 642.3 1.2 664 0 21.7-1.2 27.7-13.6 27.7-27.7V231.5c0-14.2-11.7-25.6-25.9-25.6l-665.7 2c-14.4-0.1-27.8 13.4-27.8 27.6z m593.3 585.7c14.2 0 25.7 11.4 25.7 25.6 0 14.2-11.3 25.6-25.7 25.6H278.3c-14.2 0-25.7-11.4-25.7-25.6 0-14.2 11.3-25.6 25.7-25.6h467.3zM456 361.3c-28.6-15.1-50.5-3.7-50.5 25.3v152.5c0 29 21.8 40.3 50.3 25.1l139.1-74.3c28.4-15.2 28.8-39.9 0.2-55L456 361.3z"
            fill="#000000" stroke="#000000" stroke-width="30" stroke-linecap="round" stroke-linejoin="round"></path>
    </g>
</svg>


